<svg width="126" height="118" viewBox="0 0 126 118" fill="none" xmlns="http://www.w3.org/2000/svg">
<path d="M40.2509 59.8091L26.0348 70.0397L11.8694 60.8485" stroke="#4ECAFF" stroke-width="9" stroke-linecap="round" stroke-linejoin="round"/>
<mask id="path-2-inside-1_140_6" fill="white">
<path d="M23.8632 66.5331C22.7858 66.7404 21.7423 66.0261 21.6027 64.9378C20.4664 56.079 22.2161 47.0247 26.6224 39.1243C31.3563 30.6366 38.8638 24.0058 47.8656 20.3619C56.8675 16.7179 66.8067 16.2863 75.9899 19.1404C85.173 21.9945 93.0318 27.9579 98.2272 36.0143C103.423 44.0708 105.633 53.722 104.482 63.3234C103.332 72.9247 98.8905 81.8823 91.9158 88.6697C84.9411 95.4571 75.8644 99.6545 66.2322 100.547C57.2641 101.377 48.3312 99.2949 40.7524 94.6389C39.8227 94.0677 39.5972 92.8322 40.2183 91.9352L43.2649 87.5351C43.8805 86.646 45.0955 86.4265 46.0242 86.9806C51.8524 90.4581 58.6747 92.0042 65.5233 91.3699C73.0279 90.6748 80.0998 87.4045 85.5339 82.1163C90.968 76.8281 94.4282 69.8491 95.3248 62.3684C96.2215 54.8878 94.4991 47.3684 90.4513 41.0914C86.4034 34.8144 80.2804 30.1683 73.1257 27.9446C65.9709 25.7209 58.227 26.0572 51.2135 28.8963C44.2 31.7354 38.3507 36.9015 34.6624 43.5145C31.2926 49.5564 29.9172 56.4646 30.7049 63.2447C30.829 64.3128 30.1383 65.326 29.0824 65.5291L23.8632 66.5331Z"/>
</mask>
<path d="M23.8632 66.5331C22.7858 66.7404 21.7423 66.0261 21.6027 64.9378C20.4664 56.079 22.2161 47.0247 26.6224 39.1243C31.3563 30.6366 38.8638 24.0058 47.8656 20.3619C56.8675 16.7179 66.8067 16.2863 75.9899 19.1404C85.173 21.9945 93.0318 27.9579 98.2272 36.0143C103.423 44.0708 105.633 53.722 104.482 63.3234C103.332 72.9247 98.8905 81.8823 91.9158 88.6697C84.9411 95.4571 75.8644 99.6545 66.2322 100.547C57.2641 101.377 48.3312 99.2949 40.7524 94.6389C39.8227 94.0677 39.5972 92.8322 40.2183 91.9352L43.2649 87.5351C43.8805 86.646 45.0955 86.4265 46.0242 86.9806C51.8524 90.4581 58.6747 92.0042 65.5233 91.3699C73.0279 90.6748 80.0998 87.4045 85.5339 82.1163C90.968 76.8281 94.4282 69.8491 95.3248 62.3684C96.2215 54.8878 94.4991 47.3684 90.4513 41.0914C86.4034 34.8144 80.2804 30.1683 73.1257 27.9446C65.9709 25.7209 58.227 26.0572 51.2135 28.8963C44.2 31.7354 38.3507 36.9015 34.6624 43.5145C31.2926 49.5564 29.9172 56.4646 30.7049 63.2447C30.829 64.3128 30.1383 65.326 29.0824 65.5291L23.8632 66.5331Z" fill="#4ECAFF" stroke="#4ECAFF" stroke-width="0.786697" mask="url(#path-2-inside-1_140_6)"/>
</svg>
